<?xml version="1.0" standalone="no"?>
<!DOCTYPE svg PUBLIC "-//W3C//DTD SVG 20010904//EN"
 "http://www.w3.org/TR/2001/REC-SVG-20010904/DTD/svg10.dtd">
<svg version="1.0" xmlns="http://www.w3.org/2000/svg"
 width="420.000000pt" height="276.000000pt" viewBox="0 0 420.000000 276.000000"
 preserveAspectRatio="xMidYMid meet">

<g transform="translate(0.000000,276.000000) scale(0.100000,-0.100000)"
fill="#000000" stroke="none">
<path d="M1630 2504 c-219 -40 -385 -121 -529 -258 -62 -60 -137 -150 -160
-193 -11 -21 -10 -22 16 -12 16 5 53 42 87 85 137 174 350 297 579 334 100 17
268 8 372 -19 165 -43 351 -158 461 -285 45 -52 49 -55 58 -37 21 48 -169 214
-337 296 -135 65 -226 86 -387 90 -74 2 -146 2 -160 -1z"/>
<path d="M2800 2296 c-78 -17 -128 -46 -184 -106 -65 -69 -91 -134 -171 -418
-38 -133 -72 -239 -76 -235 -3 5 -25 49 -47 98 -22 50 -52 117 -67 150 -16 33
-47 103 -70 155 -23 52 -46 95 -51 97 -5 2 -56 -110 -113 -247 -57 -138 -107
-247 -112 -243 -4 4 -26 62 -49 128 -50 142 -75 189 -129 238 -48 43 -96 69
-176 94 -86 26 -492 27 -576 1 -75 -23 -118 -54 -157 -112 -40 -60 -43 -84 -3
-29 35 49 115 91 189 100 l52 6 0 -361 0 -360 -31 -26 -31 -26 224 0 c123 0
248 4 278 9 71 12 157 45 193 73 l28 23 -32 88 c-18 48 -35 84 -39 80 -4 -4
-13 -25 -19 -45 -18 -56 -65 -114 -118 -145 -43 -25 -59 -28 -160 -32 l-113
-3 0 366 0 366 80 0 c115 0 175 -16 221 -57 65 -59 61 -50 218 -476 28 -75 51
-144 51 -153 0 -9 -15 -44 -32 -78 -43 -81 -139 -178 -198 -199 l-45 -15 36
-1 c87 -2 208 77 264 173 13 22 71 156 130 296 59 140 111 259 115 264 5 5 20
-17 35 -50 104 -238 219 -484 225 -484 4 0 17 35 29 78 26 91 126 431 182 622
22 74 52 159 66 187 49 101 135 177 236 208 53 17 20 17 -53 1z"/>
<path d="M3246 2205 c-231 -95 -432 -375 -502 -698 -21 -98 -21 -274 0 -357
57 -224 209 -328 405 -275 196 52 361 230 361 389 0 72 -24 129 -57 134 -13 2
-35 -9 -57 -28 -56 -50 -45 -100 22 -100 34 0 34 -1 28 -32 -22 -113 -134
-246 -243 -289 -84 -33 -206 -33 -254 0 -46 31 -83 85 -106 151 -28 86 -25
315 6 434 95 363 316 636 515 636 76 0 125 -23 149 -70 16 -30 18 -51 13 -145
-3 -60 -12 -155 -20 -210 -7 -55 -11 -105 -9 -112 7 -17 48 -17 61 0 6 7 29
86 51 176 25 100 57 196 81 249 22 46 40 89 40 93 0 22 -44 5 -84 -31 l-44
-41 -20 33 c-29 47 -71 84 -114 102 -57 24 -152 20 -222 -9z"/>
<path d="M2606 1960 c-4 -20 0 -43 10 -62 9 -17 27 -74 40 -127 30 -117 34
-293 10 -412 -95 -460 -538 -782 -1003 -729 -416 47 -747 362 -814 774 -18
112 -7 290 24 396 14 47 24 86 23 87 -1 2 -15 -10 -30 -26 -44 -46 -60 -130
-60 -321 0 -151 3 -173 28 -255 118 -387 426 -648 825 -696 270 -33 566 68
764 260 219 211 324 491 296 786 -12 126 -55 278 -94 338 -11 16 -13 15 -19
-13z"/>
<path d="M150 510 c0 -6 30 -10 70 -10 l70 0 0 -90 0 -90 40 0 40 0 0 90 0 90
70 0 c40 0 70 4 70 10 0 6 -67 10 -180 10 -113 0 -180 -4 -180 -10z"/>
<path d="M520 420 l0 -100 40 0 40 0 0 44 c0 55 15 68 77 64 l48 -3 3 -52 3
-53 40 0 c39 0 39 0 39 39 0 22 -7 48 -17 60 -21 25 -110 44 -160 35 -32 -6
-33 -6 -33 30 0 35 -1 36 -40 36 l-40 0 0 -100z"/>
<path d="M845 510 c-12 -19 10 -32 46 -28 48 4 46 32 -3 36 -20 2 -39 -2 -43
-8z"/>
<path d="M1290 420 l0 -100 35 0 c30 0 35 3 35 24 0 34 35 56 88 56 62 0 82
-14 82 -55 0 -32 -16 -58 -42 -68 -29 -10 1 -16 34 -7 49 14 88 47 88 74 0 28
-35 62 -75 72 l-30 7 40 18 40 18 -37 0 c-20 1 -68 -10 -106 -24 -38 -14 -72
-25 -76 -25 -3 0 -6 25 -6 55 l0 55 -35 0 -35 0 0 -100z"/>
<path d="M1830 420 l0 -100 105 0 c114 0 157 11 194 51 45 49 13 116 -65 138
-22 6 -83 11 -136 11 l-98 0 0 -100z m187 65 c44 -19 53 -30 53 -70 0 -53 -31
-75 -108 -75 -57 0 -62 6 -62 80 0 27 3 55 6 64 8 21 63 21 111 1z"/>
<path d="M2184 509 c-9 -14 14 -29 46 -29 14 0 31 4 39 9 23 15 2 31 -39 31
-21 0 -42 -5 -46 -11z"/>
<path d="M2370 509 c-55 -22 -60 -34 -60 -146 l0 -104 38 3 37 3 3 72 3 72 72
4 72 3 -72 2 -73 2 0 30 c0 37 23 50 89 50 28 0 51 5 51 10 0 13 -127 12 -160
-1z"/>
<path d="M2590 502 l-35 -17 -3 -112 -3 -113 35 0 35 0 3 73 3 72 75 5 75 6
-75 4 c-83 6 -99 21 -61 59 16 16 34 21 76 21 30 0 55 5 55 10 0 18 -141 12
-180 -8z"/>
<path d="M3960 490 c0 -27 -3 -30 -30 -30 -38 0 -40 -18 -2 -22 26 -3 27 -6
30 -60 l3 -58 34 0 34 0 3 58 c3 56 3 57 36 60 39 4 33 22 -9 22 -26 0 -29 3
-29 30 0 28 -3 30 -35 30 -32 0 -35 -2 -35 -30z"/>
<path d="M850 390 l0 -70 40 0 40 0 0 70 0 70 -40 0 -40 0 0 -70z"/>
<path d="M1051 449 c-61 -12 -81 -33 -81 -86 0 -43 0 -43 35 -43 33 0 35 2 35
36 0 59 14 74 70 74 56 0 70 -15 70 -74 0 -34 2 -36 35 -36 35 0 35 1 35 43 0
23 -4 47 -8 53 -21 31 -117 48 -191 33z"/>
<path d="M2190 390 l0 -70 40 0 40 0 0 70 0 70 -40 0 -40 0 0 -70z"/>
<path d="M3188 451 c-20 -4 -48 -15 -62 -25 -22 -14 -26 -24 -26 -61 0 -45 0
-45 35 -45 34 0 35 1 35 38 0 20 4 42 8 49 10 16 57 33 93 33 18 0 28 4 24 10
-7 11 -51 11 -107 1z"/>
<path d="M3730 453 c-85 -13 -110 -34 -110 -93 l0 -40 40 0 40 0 0 43 c0 53
13 67 61 67 62 0 69 -7 69 -61 l0 -49 40 0 c40 0 40 0 40 39 0 54 -24 79 -89
91 -29 5 -56 9 -60 9 -3 -1 -17 -3 -31 -6z"/>
<path d="M2834 436 c-18 -8 -35 -19 -39 -26 -14 -22 5 -58 39 -74 37 -18 142
-22 166 -6 11 7 -3 10 -45 10 -56 0 -85 11 -85 32 0 4 43 8 95 8 102 0 116 8
74 46 -27 25 -158 31 -205 10z m146 -21 c11 -13 5 -15 -49 -15 -33 0 -61 4
-61 9 0 24 91 28 110 6z"/>
<path d="M3354 431 c-18 -11 -35 -24 -38 -30 -11 -18 14 -52 49 -67 39 -16
151 -19 160 -4 4 6 -13 10 -45 10 -52 0 -90 13 -90 30 0 6 43 10 101 10 90 0
100 2 97 18 -9 49 -171 72 -234 33z m140 -7 c34 -13 13 -24 -45 -24 -54 0 -60
2 -49 15 13 15 65 20 94 9z"/>
</g>
</svg>
